<svg width="140" height="40" fill="none" xmlns="http://www.w3.org/2000/svg"><path d="M51.5 26.1a6 6 0 0 1-4-1.2c-1-.9-1.6-2-1.6-3.6a53.7 53.7 0 0 1 0-3.3c0-1.6.5-2.7 1.5-3.6 1-.8 2.4-1.2 4-1.2 1.2 0 2.2.2 3 .5.9.4 1.5.9 2 1.5.4.5.7 1.1.7 1.7l-.1.3-.3.1h-2.9l-.2-.2-.7-1c-.4-.2-.8-.3-1.4-.3-1.5 0-2.2.7-2.3 2.2a48.6 48.6 0 0 0 0 3.2c0 1.6.9 2.3 2.3 2.3.7 0 1.3-.1 1.7-.5.4-.4.7-1 .7-1.7V21h-1.7c-.2 0-.3 0-.4-.2V19l.4-.2h4.5c.1 0 .2 0 .3.2l.1.3v2c0 1-.2 2-.7 2.7-.4.7-1 1.3-2 1.7-.8.3-1.8.5-3 .5Zm12 0a5 5 0 0 1-3.5-1 4.1 4.1 0 0 1-1.3-3 12.3 12.3 0 0 1 0-1.6 4 4 0 0 1 1.3-3c.9-.7 2-1 3.4-1a5 5 0 0 1 3.5 1 4 4 0 0 1 1.3 3 12.3 12.3 0 0 1 0 1.6c0 1.3-.5 2.3-1.3 3-.8.7-2 1-3.5 1Zm0-2.2c.5 0 .9-.1 1.1-.4.3-.3.4-.8.4-1.5a9 9 0 0 0 0-1.4c0-.7-.1-1.2-.4-1.5-.3-.3-.6-.5-1.2-.5-1 0-1.5.7-1.5 2V22c0 .7.1 1.2.4 1.5.2.3.6.4 1.1.4Z" fill="#000"/><path d="M75.4 26.1a6 6 0 0 1-4-1.2c-1-.8-1.5-2-1.6-3.6a48.4 48.4 0 0 1 0-3.2c0-1.6.6-2.8 1.6-3.6 1-.9 2.3-1.3 4-1.3 1 0 2 .2 2.8.5.9.4 1.5.9 2 1.5.5.7.8 1.4.8 2.3 0 .2 0 .2-.2.3l-.2.1h-2.8l-.2-.5c-.2-.6-.5-1-.8-1.2-.4-.3-.8-.4-1.4-.4-1.4 0-2.2.8-2.2 2.3a44.6 44.6 0 0 0 0 3c0 1.7.8 2.4 2.2 2.4.6 0 1 0 1.4-.3.4-.3.6-.7.8-1.3 0-.2 0-.3.2-.4H80.9v.3c0 .9-.2 1.6-.7 2.3-.5.7-1.1 1.2-2 1.5-.8.4-1.8.5-2.8.5Zm11.7 0a5 5 0 0 1-3.5-1 4.1 4.1 0 0 1-1.3-3 12.3 12.3 0 0 1 0-1.6 4 4 0 0 1 1.4-3c.8-.7 2-1 3.4-1a5 5 0 0 1 3.4 1 4 4 0 0 1 1.4 3 12.3 12.3 0 0 1 0 1.6c-.1 1.3-.6 2.3-1.4 3-.8.7-2 1-3.4 1Zm0-2.2c.5 0 1-.1 1.2-.4.2-.3.4-.8.4-1.5a9 9 0 0 0 0-1.4c0-.7-.2-1.2-.5-1.5-.2-.3-.6-.5-1.1-.5-1 0-1.5.7-1.6 2V22c0 .7.2 1.2.4 1.5.3.3.7.4 1.2.4Zm7 2h-.3l-.1-.4v-8.8l.4-.1h2l.4.1.2.4v.7c.6-.8 1.5-1.2 2.6-1.2h.8l.3.1.2.4v1.8c0 .1 0 .2-.2.3l-.3.2h-1.7c-.5 0-1 0-1.2.4-.3.2-.4.6-.4 1.1v4.6l-.1.3-.4.2h-2.2Zm12 .2a5 5 0 0 1-3.4-1 4.1 4.1 0 0 1-1.3-3 12.3 12.3 0 0 1 0-1.6 4 4 0 0 1 1.4-3c.8-.7 2-1 3.4-1a5 5 0 0 1 3.4 1 4 4 0 0 1 1.3 3 12.3 12.3 0 0 1 0 1.6c0 1.3-.5 2.3-1.3 3-.8.7-2 1-3.4 1Zm0-2.2c.6 0 1-.1 1.2-.4.3-.3.4-.8.5-1.5a9 9 0 0 0 0-1.4c0-.7-.2-1.2-.5-1.5-.2-.3-.6-.5-1.1-.5-1 0-1.5.7-1.6 2V22c0 .7.2 1.2.4 1.5.3.3.7.4 1.2.4Zm7.1 2h-.3l-.1-.4v-8.8l.4-.1h2l.4.1.1.4v.6l1.3-1a4 4 0 0 1 1.7-.3c1 0 2 .4 2.6 1.1.7.7 1 1.7 1 3v5l-.1.3-.4.2h-2.2c-.1 0-.3 0-.3-.2l-.2-.3v-4.9c0-.6-.1-1-.4-1.3-.3-.3-.7-.5-1.2-.5s-.9.2-1.2.5c-.3.3-.4.7-.4 1.3v5l-.1.2-.3.2h-2.3Zm14 .2c-.7 0-1.3 0-1.8-.3s-1-.6-1.2-1c-.3-.5-.5-1-.5-1.4 0-.9.4-1.5 1-2 .7-.6 1.7-.9 2.8-1l2.3-.4v-.3c0-.4-.1-.8-.3-1-.2-.2-.5-.3-1-.3l-.7.1a3 3 0 0 0-.5.4l-.4.3c0 .1 0 .2-.2.2h-2s-.2 0-.3-.2V19c0-.4.1-.7.4-1.1.3-.4.8-.8 1.4-1 .7-.3 1.4-.5 2.4-.5 1.4 0 2.5.4 3.2 1 .8.7 1.1 1.5 1.1 2.6v5.5l-.1.3-.3.2h-2.1c-.2 0-.3 0-.4-.2V25a3 3 0 0 1-1.2.9c-.5.2-1 .3-1.7.3Zm.8-2c.5 0 1-.2 1.3-.6.4-.3.5-.8.5-1.5v-.3l-1.5.3c-1 .2-1.6.6-1.6 1.1 0 .3.1.6.4.7.2.2.5.3.9.3ZM14.2 5c1.4-.5 3 .2 3.5 1.5.4 1 0 2.1-.8 2.8l.5 1.2.7.8c.1.2.4.3.6.3h2c.2 0 .4 0 .6-.2l.5-.5.4-1.1c-.3-.5-.5-1-.3-1.6a1.7 1.7 0 0 1 3.4 1c-.2.6-.6 1-1 1.1l-.5 1.3.1.6c0 .3.2.5.4.6.7.4 1.3.9 1.8 1.5l.7.2 1.4-.3 1.5-.8c0-.8.4-1.5 1.1-1.9 1-.6 2.4-.2 3 .9a2.1 2.1 0 0 1-3 2.8l-1.6.9-.8.9a1 1 0 0 0-.2.9l.2 1.7c0 .3.2.6.5.7l1.1.6 2.2.5a1.7 1.7 0 0 1 2.9 1.7 1.7 1.7 0 0 1-3.2.4l-2.3-.5-1.3.2c-.3 0-.5.2-.6.4-.4 1-1 1.8-1.7 2.5-.1.2-.2.4-.1.7l.3 1.3.8 1.3c1-.1 2 .3 2.5 1 .7 1.2.3 2.7-.8 3.4a2.4 2.4 0 0 1-3.5-3.2l-.8-1.4-1.1-.9a.6.6 0 0 0-.6 0 8.6 8.6 0 0 1-4.4.3c-.1 0-.3 0-.4.2l-.6.5-.5 1c.3.5.4 1 .2 1.6-.4 1-1.5 1.4-2.4 1a1.7 1.7 0 0 1 .2-3.2l.5-1.2-.1-1a8.7 8.7 0 0 1-2.3-2.2l-1.5.2-1.4.7c0 1-.5 1.8-1.3 2.2-1.2.6-2.7.1-3.3-1.2a2.6 2.6 0 0 1 1-3.4c1-.4 2-.2 2.7.4l1.4-.6.9-1v-.2a8.5 8.5 0 0 1 0-4.6v-.3l-.8-1-1.7-.8c-.4.2-1 .2-1.5 0a1.7 1.7 0 0 1-.6-2.5c.4-.7 1.4-1 2.2-.6.5.2.8.7 1 1.2l1.6.9 1.2.1h.3c.5-.8 1.2-1.4 2-1.9l.2-.6v-1L15 10c-1-.1-2-.7-2.3-1.7-.5-1.3.2-2.8 1.6-3.3Z" fill="#EC5863"/><path d="M26 18.5a6.4 6.4 0 0 0-12.4 3.3A6.4 6.4 0 0 0 26 18.5Z" fill="#F58A97"/><path d="M21 24.4c-3.2.8-6.3-.7-7.6-3.6a6.4 6.4 0 0 0 8 5.5 6.4 6.4 0 0 0 4.3-8.7c.3 3-1.7 6-4.8 6.8Z" fill="#F07281"/><path d="M11.3 33.5a1.8 1.8 0 0 0-3.5 1 1.8 1.8 0 0 0 3.5-1ZM34.1 28a1.2 1.2 0 0 0-2.3.6 1.2 1.2 0 0 0 2.3-.7ZM30.8 6a1.8 1.8 0 0 0-3.4 1 1.8 1.8 0 0 0 3.4-1ZM20.2 22a1.7 1.7 0 0 0-3.2.9 1.7 1.7 0 0 0 3.2-.9ZM24.3 19.6a1.1 1.1 0 0 0-2.2.6 1.1 1.1 0 0 0 2.2-.6ZM20 17.1a1 1 0 0 0-1.9.5A1 1 0 0 0 20 17Z" fill="#EB5569"/></svg>